<svg xmlns="http://www.w3.org/2000/svg" viewBox="0 0 1080 1350" width="1080" height="1350"><defs><pattern id="ht" width="8" height="8" patternUnits="userSpaceOnUse" patternTransform="rotate(18)"><circle cx="4.0" cy="4.0" r="1.8" fill="#16110E" opacity="0.14"/></pattern><pattern id="ht2" width="8" height="8" patternUnits="userSpaceOnUse" patternTransform="rotate(18)"><circle cx="4.0" cy="4.0" r="2.2" fill="#16110E" opacity="0.22"/></pattern><pattern id="tw" width="30.00" height="30.00" patternUnits="userSpaceOnUse" patternTransform="rotate(32)"><rect width="30.00" height="30.00" fill="#B8231A"/><rect x="0.00" width="3.20" height="30.00" fill="#F2B21E" opacity="1"/><rect x="3.20" width="1.20" height="30.00" fill="#74130C" opacity="0.6"/><rect x="8.00" width="2.60" height="30.00" fill="#D23A26" opacity="0.9"/><rect x="11.00" width="1.00" height="30.00" fill="#74130C" opacity="0.55"/><rect x="15.00" width="2.60" height="30.00" fill="#D23A26" opacity="0.9"/><rect x="18.00" width="1.00" height="30.00" fill="#74130C" opacity="0.55"/><rect x="22.00" width="2.40" height="30.00" fill="#D23A26" opacity="0.85"/><rect x="25.00" width="1.40" height="30.00" fill="#74130C" opacity="0.6"/></pattern><filter id="tw-round" filterUnits="userSpaceOnUse" x="-60" y="-60" width="1200" height="1470"><feGaussianBlur in="SourceAlpha" stdDeviation="4.80" result="b"/><feDiffuseLighting in="b" surfaceScale="2.70" diffuseConstant="1.05" lighting-color="#fff" result="l"><feDistantLight azimuth="235" elevation="52"/></feDiffuseLighting><feComposite in="l" in2="SourceAlpha" operator="in" result="lc"/><feBlend in="SourceGraphic" in2="lc" mode="multiply"/></filter></defs><rect width="1080" height="1350" fill="#D2622A"/><rect width="1080" height="1350" fill="url(#ht)"/><rect x="40" y="40" width="1000" height="1270" fill="none" stroke="#EFE6D5" stroke-width="10"/><rect x="58" y="58" width="964" height="1234" fill="none" stroke="#16110E" stroke-width="3"/><rect x="23" y="23" width="34" height="34" transform="rotate(45 40 40)" fill="#F2B21E" stroke="#16110E" stroke-width="4"/><rect x="1023" y="23" width="34" height="34" transform="rotate(45 1040 40)" fill="#F2B21E" stroke="#16110E" stroke-width="4"/><rect x="23" y="1293" width="34" height="34" transform="rotate(45 40 1310)" fill="#F2B21E" stroke="#16110E" stroke-width="4"/><rect x="1023" y="1293" width="34" height="34" transform="rotate(45 1040 1310)" fill="#F2B21E" stroke="#16110E" stroke-width="4"/></svg>